<?xml version="1.0" encoding="UTF-8" standalone="no"?>
<!-- Created with Inkscape (http://www.inkscape.org/) -->

<svg
   xmlns:dc="http://purl.org/dc/elements/1.1/"
   xmlns:cc="http://creativecommons.org/ns#"
   xmlns:rdf="http://www.w3.org/1999/02/22-rdf-syntax-ns#"
   xmlns:svg="http://www.w3.org/2000/svg"
   xmlns="http://www.w3.org/2000/svg"
   xmlns:sodipodi="http://sodipodi.sourceforge.net/DTD/sodipodi-0.dtd"
   xmlns:inkscape="http://www.inkscape.org/namespaces/inkscape"
   version="1.1"
   id="svg2"
   width="375"
   height="375"
   viewBox="0 0 375 375"
   sodipodi:docname="inf.svg"
   inkscape:version="0.92.1 r15371">
  <metadata
     id="metadata8">
    <rdf:RDF>
      <cc:Work
         rdf:about="">
        <dc:format>image/svg+xml</dc:format>
        <dc:type
           rdf:resource="http://purl.org/dc/dcmitype/StillImage" />
        <dc:title />
      </cc:Work>
    </rdf:RDF>
  </metadata>
  <defs
     id="defs6" />
  <sodipodi:namedview
     pagecolor="#ffffff"
     bordercolor="#666666"
     borderopacity="1"
     objecttolerance="10"
     gridtolerance="10"
     guidetolerance="10"
     inkscape:pageopacity="0"
     inkscape:pageshadow="2"
     inkscape:window-width="1366"
     inkscape:window-height="715"
     id="namedview4"
     showgrid="false"
     inkscape:zoom="0.44500587"
     inkscape:cx="-44.341963"
     inkscape:cy="197.98545"
     inkscape:window-x="-8"
     inkscape:window-y="-8"
     inkscape:window-maximized="1"
     inkscape:current-layer="g4487" />
  <g
     id="g4487"
     transform="translate(-3.0759747,0.89855941)"
     inkscape:label="g4487"
     style="display:inline"
     inkscape:groupmode="layer">
    <path
       style="fill:#d8e5ed"
       d="M 200,334.08877 C 166.60645,326.7635 140.59045,316.27173 116,300.21313 68.987521,269.51198 40,224.54842 40,182.32685 40,148.54295 59.052799,122.37908 92.310697,110.49225 107.4978,105.06417 117.62644,103.60006 140,103.59869 c 21.01442,-0.001 26.98413,0.82648 46.55947,6.45606 46.88536,13.48354 91.30239,46.10807 106.49414,78.22048 5.06589,10.70832 3.84327,15.15894 -6.24267,22.72477 -3.2994,2.475 -9.10533,7.7625 -12.90206,11.75 -3.79674,3.9875 -7.54263,7.25 -8.32422,7.25 -0.78159,0 -3.39751,-3.7125 -5.81317,-8.25 -20.90918,-39.27523 -55.78632,-66.7641 -98.18761,-77.38784 -13.58097,-3.40274 -35.8211,-4.33934 -46.01927,-1.93801 -22.079621,5.19903 -38.114897,21.68324 -43.162405,44.37082 -2.155626,9.68913 -1.453466,26.51201 1.552879,37.20503 8.478028,30.15481 34.518836,59.6953 71.066326,80.61709 18.03974,10.32693 44.60664,20.92622 66.39396,26.48893 8.30343,2.12002 10.97383,3.45522 10.0146,5.00729 -0.94492,1.52891 -8.47302,0.81771 -21.42997,-2.02454 z m 8.86837,-56.57876 C 190.43687,274.40667 165.2621,265.61337 148,256.24929 117.71958,239.82322 93.609673,217.89544 82.60422,196.7723 c -6.611038,-12.68879 -5.740964,-17.33931 4.680188,-25.01545 3.418576,-2.5181 9.545163,-8.00866 13.614642,-12.20126 4.06947,-4.19259 7.89447,-7.46349 8.5,-7.26866 0.60552,0.19483 3.50002,4.82247 6.43223,10.28365 19.91384,37.08922 54.6045,64.49255 94.89842,74.96351 25.26039,6.56428 45.14139,5.7554 61.93016,-2.51968 13.99582,-6.89847 24.65708,-20.49421 29.02528,-37.01441 2.49014,-9.41755 2.25238,-26.07699 -0.52636,-36.88089 -2.56582,-9.97604 -9.19106,-24.34642 -15.84538,-34.36915 C 279.79363,118.43606 261.57749,99.708529 252,92.501318 230.21917,76.110906 201.19994,62.362316 168.50651,52.944184 c -14.80728,-4.265595 -16.67541,-5.17528 -14.69499,-7.155702 1.50215,-1.502148 23.44734,2.605082 41.16124,7.703679 57.11816,16.44033 104.68791,52.643799 126.45576,96.240519 9.2793,18.58461 12.87076,32.81393 12.81359,50.76732 -0.0461,14.47531 -2.23379,23.83436 -8.29432,35.48347 -11.5117,22.12694 -34.94346,36.89872 -65.94363,41.57199 -11.69832,1.76352 -40.54413,1.73788 -51.13579,-0.0454 z m -32.14925,-69.63284 -8.78089,-5.074 0.28089,-11.62484 0.28088,-11.62484 9,-5.25661 c 5.65979,-3.3057 9.67461,-5.04553 10.81769,-4.68787 2.7369,0.85635 17.07532,9.46899 17.917,10.76218 0.40408,0.62085 0.74158,5.67157 0.75,11.22382 0.0127,8.39173 -0.27996,10.34671 -1.73469,11.58678 -3.0795,2.62508 -16.36587,9.81909 -18.08784,9.7938 -0.91419,-0.0134 -5.61356,-2.30772 -10.44304,-5.09842 z"
       id="path4505"
       inkscape:connector-curvature="0" />
    <path
       style="fill:#b0cadd"
       d="m 205.5,334.39902 c -4.4,-0.78184 -13.66687,-2.95764 -20.59304,-4.83512 C 117.71613,311.35041 65.407457,268.5219 47.151899,216.77488 37.861312,190.43988 39.205026,163.14176 50.721191,144.26319 64.384186,121.86531 87.418501,108.96392 121,104.90044 c 14.29981,-1.73033 38.93815,-0.55218 52.14792,2.4936 52.6308,12.13509 101.1002,45.19337 119.23376,81.32272 2.71598,5.41134 3.35075,11.04617 1.61063,14.29761 -0.55423,1.03559 -5.21036,5.26311 -10.34696,9.3945 -5.13659,4.13138 -11.01326,9.5545 -13.05926,12.05137 -2.04599,2.49687 -4.25236,4.53783 -4.90304,4.53547 -0.65068,-0.002 -2.85682,-3.26486 -4.90255,-7.25 C 239.21419,179.73379 197.29955,148.93392 151.5,141.44382 137.05804,139.08197 119.05464,139.88287 109.12024,143.32911 76.326505,154.70527 61.733909,190.99853 74.67415,229 89.394362,272.2287 134.27734,308.25587 198,327.99259 c 16.78678,5.19934 19,6.02973 19,7.12873 0,1.12497 -1.70746,1.01772 -11.5,-0.7223 z M 220,277.97793 c -20.15844,-1.58371 -49.73102,-10.89655 -71.5,-22.51641 -32.00769,-17.08507 -60.766627,-44.72991 -67.970369,-65.33725 -3.006511,-8.60055 -2.048307,-10.42315 10.739266,-20.42715 4.527107,-3.54166 10.154843,-8.72893 12.506083,-11.52728 2.41724,-2.87689 4.84533,-4.86904 5.58745,-4.58426 0.72187,0.27701 2.62313,3.29607 4.22503,6.70903 5.19438,11.06701 16.37411,26.66849 26.34095,36.75918 25.16841,25.48118 56.83078,41.21884 90.57159,45.01828 16.82838,1.89499 28.82869,0.15239 42.01583,-6.10125 9.2544,-4.38865 17.9767,-12.37524 23.40985,-21.43528 11.39761,-19.00606 11.23384,-46.69024 -0.42176,-71.29545 C 289.2202,129.97503 283.04981,121.14524 272.05508,109.68496 247.45337,84.041537 216.32163,66.449091 171.7351,52.994449 c -7.20009,-2.172734 -13.55098,-4.41033 -14.11309,-4.972437 -2.68771,-2.687708 15.27693,0.195404 34.47812,5.533332 22.06352,6.133658 50.01997,18.653202 66.89987,29.959313 39.60629,26.528183 64.66671,60.459623 73.10665,98.985343 2.15381,9.83146 1.6723,28.55739 -0.97711,38 -10.00083,35.64334 -41.26543,55.82009 -89.62954,57.8428 -6.05,0.25303 -15.725,0.0888 -21.5,-0.36487 z m -42.5,-70.80513 -8,-4.75539 -0.28188,-11.11531 -0.28188,-11.11531 9.04547,-5.17632 9.04547,-5.17633 7.73641,4.20771 c 11.63148,6.32617 11.23885,5.73613 11.2211,16.86314 -0.008,5.27725 -0.34592,10.10297 -0.75,10.72382 -1.14724,1.76267 -16.20337,10.37542 -18.06732,10.33528 -0.91705,-0.0197 -5.26737,-2.17583 -9.66737,-4.79129 z"
       id="path4503"
       inkscape:connector-curvature="0" />
    <path
       style="fill:#8fb2cf"
       d="M 198,332.33256 C 159.53589,323.51 126.81707,308.35442 99.837989,286.86324 75.908333,267.80119 55.167844,239.65576 47.04768,215.2253 41.065705,197.22783 39.851049,176.94711 43.889847,162.5 52.439752,131.91628 75.860388,113.07851 113.5,106.5109 c 13.65309,-2.38228 41.51275,-2.15753 54.24741,0.43763 36.19608,7.37629 68.84477,23.18354 94.91373,45.95361 14.86471,12.98365 28.2459,30.51269 31.49468,41.25727 1.64813,5.45083 0.43936,8.2266 -5.89546,13.53802 -3.15036,2.64141 -9.36594,8.29007 -13.81241,12.55257 -4.44647,4.2625 -8.50377,7.74796 -9.01622,7.74548 -0.51245,-0.002 -2.89953,-3.85727 -5.30462,-8.56619 -16.92752,-33.14236 -49.53396,-60.63901 -86.48284,-72.93005 -16.25329,-5.40665 -25.34593,-6.92909 -41.14427,-6.88904 -12.42313,0.0315 -14.9099,0.33583 -22.07841,2.70195 -44.484733,14.68315 -54.464913,68.71974 -21.355361,115.62626 21.646831,30.66722 59.212261,55.00396 109.683771,71.05857 7.2875,2.3181 13.25,4.39209 13.25,4.60887 0,0.85309 -7.83702,0.14032 -14,-1.27329 z m 16.5,-55.34464 c -9.4909,-1.20578 -28.37564,-6.16661 -40.24084,-10.57084 -28.01781,-10.39992 -56.41945,-28.84481 -74.345824,-48.28243 -11.646042,-12.62784 -19.878092,-26.52879 -19.900669,-33.60503 -0.01138,-3.56588 0.559839,-4.48281 5.606685,-9 3.090643,-2.76629 9.612391,-8.82037 14.492768,-13.45351 4.88039,-4.63315 9.06306,-8.23315 9.29484,-8 0.23177,0.23314 2.32412,4.02389 4.64967,8.42389 26.26073,49.68612 79.96479,82.37831 131.8033,80.23487 19.0992,-0.78972 31.34947,-5.91338 42.56552,-17.80299 28.47565,-30.18569 19.83411,-81.51245 -20.22551,-120.13003 -22.40627,-21.599698 -49.77138,-37.101375 -87.62892,-49.639663 -9.65634,-3.198145 -17.89764,-6.168852 -18.314,-6.60157 -1.1941,-1.241004 9.18458,0.425441 21.74298,3.491148 42.8872,10.469454 81.68565,32.020621 108.78582,60.426665 27.33071,28.6477 41.29932,60.65335 39.94386,91.52157 -0.87328,19.88724 -7.25203,34.69606 -20.6749,47.99854 -11.86899,11.76253 -25.79136,18.78072 -45.62292,22.99827 -11.31649,2.40666 -40.00364,3.50655 -51.93186,1.99111 z m -35.11184,-69.28286 c -11.09731,-6.56157 -10.49574,-5.55234 -10.17149,-17.06419 l 0.28333,-10.05892 8,-4.75507 c 4.4,-2.61528 8.70991,-4.77122 9.57758,-4.79097 0.86767,-0.0197 5.14267,2.10159 9.5,4.71409 L 204.5,180.5 v 10.87827 10.87826 l -8.5,4.86665 c -4.675,2.67665 -8.725,4.84871 -9,4.8268 -0.275,-0.0219 -3.70033,-1.93213 -7.61184,-4.24492 z"
       id="path4501"
       inkscape:connector-curvature="0" />
    <path
       style="fill:#729ec4"
       d="M 200.5,332.33451 C 134.27962,317.98157 82.535993,283.12134 56.324627,235.20201 39.300499,204.07869 37.361756,169.62089 51.249478,145 c 1.70629,-3.025 6.960684,-9.35399 11.676433,-14.06443 6.78593,-6.77828 10.451073,-9.51999 17.574089,-13.14631 18.713857,-9.52719 32.27537,-12.29911 60,-12.26375 17.14907,0.0219 21.49674,0.35531 30.5,2.33914 39.01937,8.59776 75.81447,28.53821 101.04419,54.75909 16.10281,16.73543 24.31974,32.05238 21.34853,39.79524 -0.33401,0.87041 -4.30428,4.46938 -8.82282,7.99772 -4.51855,3.52833 -10.51213,8.92799 -13.31907,11.99923 -2.80694,3.07124 -5.35601,5.58407 -5.66461,5.58407 -0.30859,0 -2.10453,-3.06489 -3.99098,-6.81087 -13.48609,-26.7798 -39.35812,-52.49457 -66.59253,-66.18777 C 174.37987,144.6324 157.63817,140.0658 137.5,139.31647 c -16.6878,-0.62095 -24.83569,0.78152 -36.14642,6.22176 C 86.124029,152.86335 74.220533,168.79729 70.379449,187 c -2.050504,9.71724 -1.318397,26.50962 1.613109,37 4.326036,15.4807 15.172647,34.09962 28.327072,48.62529 18.7589,20.71436 53.25517,41.45115 89.68037,53.90969 9.075,3.10392 16.6875,5.82834 16.91667,6.05426 0.51131,0.50407 -3.68422,0.33751 -6.41667,-0.25473 z M 220,276.9655 c -24.9896,-1.93368 -59.96774,-14.46217 -85,-30.44536 -25.09669,-16.02432 -48.527525,-40.98946 -53.671559,-57.1861 -2.317597,-7.29725 -0.996149,-9.86579 9.152827,-17.79069 4.523345,-3.53208 10.271762,-8.69928 12.774262,-11.48266 2.50249,-2.78338 5.00067,-5.06069 5.55149,-5.06069 0.55082,0 2.67258,3.2625 4.71502,7.25 12.34551,24.10243 33.02301,45.91782 57.47796,60.64099 28.7895,17.33279 65.65878,24.89552 90.33376,18.5295 15.61656,-4.02899 30.27223,-15.70714 37.01434,-29.49431 5.29024,-10.81819 6.97962,-18.50766 6.90432,-31.42618 C 305.0999,154.33286 293.12854,129.03566 269.99688,106 248.44825,84.540803 220.88697,68.473429 183.79739,55.748377 c -18.49614,-6.345836 -16.59356,-7.641902 3.46988,-2.363734 62.45511,16.430308 111.43454,53.041317 133.81309,100.022237 14.17111,29.75046 15.31468,58.59214 3.24708,81.8936 -5.04105,9.73381 -18.08452,22.88164 -28.32744,28.55409 -19.03606,10.542 -46.95522,15.3584 -76,13.11093 z m -42.28273,-70.62254 -7.78273,-4.56026 0.28273,-10.60445 0.28273,-10.60446 8.30105,-4.87085 8.30106,-4.87084 8.69894,4.94693 8.69895,4.94694 V 191.11299 201.5 l -7.92242,4.75 c -4.35733,2.6125 -8.63233,4.72822 -9.5,4.70161 -0.86767,-0.0266 -5.07981,-2.10051 -9.36031,-4.60865 z"
       id="path4499"
       inkscape:connector-curvature="0" />
    <path
       style="fill:#548ab8"
       d="M 185.5,328.38592 C 155.32174,320.11193 128.24378,307.20963 105.33462,290.18815 100.47558,286.57789 91.077574,278.19613 84.450163,271.56202 60.283969,247.37139 46.120106,220.2495 42.778211,191.76585 c -1.942627,-16.5574 1.569714,-34.31965 9.401003,-47.54178 4.205844,-7.10103 14.56717,-17.66814 22.249878,-22.69177 21.601988,-14.12528 59.238968,-19.80543 92.319198,-13.93276 48.73972,8.65267 100.61539,41.01043 120.88132,75.40046 5.15287,8.74408 6.88926,13.79652 5.98277,17.40826 -0.41405,1.64972 -4.36285,5.65864 -10.88114,11.04681 -5.62718,4.65156 -11.48792,10.05207 -13.02387,12.00115 -1.53595,1.94908 -3.18436,3.54378 -3.66314,3.54378 -0.47877,0 -2.75078,-3.4875 -5.04889,-7.75 -24.21025,-44.90465 -68.67632,-75.17438 -118.02056,-80.34102 -30.63035,-3.20718 -54.964945,8.06829 -66.835898,30.9685 C 69.542677,182.60219 67.446266,194.56852 69.109719,210 73.318102,249.04024 104.35942,286.57103 153,311.42831 c 12.73036,6.50572 19.8126,9.53068 35.5,15.16274 13.41143,4.81494 11.7157,5.82948 -3,1.79487 z m 26,-52.85056 c -26.44534,-4.18747 -56.58576,-16.12786 -79.35248,-31.43617 -28.21365,-18.97081 -51.049509,-45.61557 -51.125558,-59.65302 -0.02452,-4.5258 0.895584,-5.5944 13.505617,-15.68542 3.865168,-3.09305 8.506101,-7.46355 10.313171,-9.71221 1.80708,-2.24867 3.71837,-3.82102 4.24732,-3.49411 0.52895,0.32691 2.58324,3.8234 4.56509,7.76997 14.8653,29.60219 44.00231,56.05323 76.87559,69.78889 22.39129,9.35589 49.86121,13.2271 67.47125,9.5084 23.95924,-5.05945 41.6557,-23.14846 46.57048,-47.60351 4.32294,-21.51022 -1.83906,-46.12729 -17.37196,-69.40065 C 281.17336,116.58988 265.75904,100.48405 255.5,92.49696 235.86464,77.210024 212.71943,65.132037 184.14488,55.261342 c -5.78787,-1.999342 -10.023,-3.80197 -9.41139,-4.005839 1.44548,-0.481825 19.53415,4.0991 29.21339,7.398238 52.94655,18.046681 93.44203,50.056539 114.54674,90.544059 C 327.87606,167.19718 332,182.75167 332,200.14056 c 0,40.78273 -26.86123,68.31108 -73.51718,75.34304 -11.97081,1.80424 -35.7499,1.83044 -46.98282,0.0518 z m -33,-69.36224 -8,-4.75507 -0.2838,-10.10201 -0.2838,-10.102 7.98721,-4.60702 C 182.31257,174.07316 186.43488,172 187.0803,172 c 2.17359,0 15.91675,8.12597 16.92297,10.00611 1.63535,3.05567 1.25502,17.59275 -0.50636,19.35412 -1.38042,1.38043 -15.75428,9.68634 -16.62002,9.60386 C 186.6696,210.94434 182.9,208.7884 178.5,206.17312 Z"
       id="path4497"
       inkscape:connector-curvature="0" />
    <path
       style="fill:#2e71aa"
       d="M 182.15456,326.90599 C 163.12108,321.79438 137.78003,310.76709 121.5,300.51184 107.53526,291.71505 98.398345,284.54928 87.167672,273.58617 64.118579,251.0862 50.374902,227.54026 44.799392,201 41.910967,187.25067 42.621811,169.80268 46.547219,158.0988 56.070847,129.70342 81.766424,111.91597 120.5,106.90586 c 14.0636,-1.81909 39.536,-0.62331 52.77645,2.47755 38.83792,9.0957 75.00533,29.06588 99.17899,54.76263 11.82479,12.56982 20.47719,26.44197 20.73277,33.24025 0.16242,4.32051 -1.48056,6.53508 -9.27478,12.50146 -3.52739,2.70018 -9.08563,7.64119 -12.35165,10.98003 l -5.93822,6.07063 -4.27882,-8.0081 C 240.03601,179.0496 201.66903,150.17362 156.94742,140.3582 c -6.35618,-1.39504 -12.40838,-1.84059 -24.44742,-1.79976 -14.65886,0.0497 -16.61482,0.27413 -23.33492,2.67732 -10.330752,3.6944 -17.415776,8.25112 -24.396409,15.6905 C 77.593292,164.57318 71.72759,176.05032 69.39867,187 c -2.032111,9.5542 -1.370548,25.37632 1.526159,36.5 2.619894,10.06069 11.426516,27.85047 18.310535,36.98814 19.423846,25.78268 50.436586,47.90671 86.764636,61.89659 17.13662,6.59929 19.00613,7.97267 6.15456,4.52126 z M 219.5,275.98403 c -26.11718,-2.20525 -61.81372,-15.41299 -86.88762,-32.14846 -24.45145,-16.32002 -45.322168,-38.94359 -50.278807,-54.50153 -2.149457,-6.74673 -0.96376,-9.70483 5.96935,-14.89242 2.858392,-2.13875 8.643374,-7.20099 12.855517,-11.24944 l 7.65843,-7.3608 2.72998,4.83431 c 8.07694,14.30288 11.02573,18.92381 16.35766,25.63349 21.25389,26.74577 51.06912,46.12906 83.23015,54.10905 34.82063,8.6399 59.39884,4.23735 77.36534,-13.85802 C 300.7236,214.23893 306.28798,199.94606 306.23321,181 306.15778,154.9043 294.20071,129.18058 271.55035,106.38538 251.61563,86.323173 228.61394,71.980714 194.5,58.341444 c -7.56134,-3.023139 -9.74958,-4.215189 -7,-3.813276 7.94215,1.160925 31.31178,9.781609 46,16.968667 25.09288,12.278139 40.59295,23.479705 58.84129,42.523325 42.40121,44.24908 51.71901,101.05152 21.96909,133.92625 -16.12623,17.82006 -39.69025,27.00581 -72.81038,28.383 -6.6,0.27444 -16.5,0.11902 -22,-0.34538 z M 179.38453,206.16604 C 169.72146,200.37331 170,200.80658 170,191.56868 c 0,-5.04652 0.47944,-8.78759 1.25,-9.75382 0.6875,-0.86207 4.52901,-3.45257 8.5367,-5.75667 l 7.2867,-4.18928 6.7133,3.70505 C 204.26597,181.35743 204,180.93928 204,191.63055 v 9.32058 l -7.72909,4.52444 c -4.251,2.48844 -8.4135,4.48665 -9.25,4.44047 -0.8365,-0.0462 -4.27287,-1.73369 -7.63638,-3.75 z"
       id="path4495"
       inkscape:connector-curvature="0" />
    <path
       style="fill:#1763a3"
       d="m 165.5,320.96842 c -22.28355,-7.95784 -46.76874,-21.51435 -65,-35.98803 -43.060755,-34.18564 -65.146873,-84.3173 -54.335379,-123.33189 6.221142,-22.44974 24.150617,-40.36805 48.610082,-48.5798 22.891467,-7.68533 55.869087,-8.56515 81.725297,-2.18038 28.30471,6.98938 52.60765,18.46452 75.28586,35.54777 22.82765,17.19583 43.27764,44.20614 40.83568,53.93569 -0.40404,1.60983 -3.50029,4.73517 -8.38115,8.45992 -4.25721,3.24883 -10.15244,8.46621 -13.1005,11.59419 -2.94805,3.12798 -5.48222,5.54928 -5.63148,5.38067 -0.14925,-0.16861 -1.72255,-3.201 -3.49621,-6.73866 C 238.43937,172.05071 184.35686,137.90583 133,137.61632 c -15.10559,-0.0851 -23.05211,1.69436 -34.494463,7.72456 C 91.094452,149.24657 80.386193,159.6737 76.262465,167 c -17.445313,30.99369 -8.576666,71.64829 23.326622,106.93113 14.690493,16.24667 40.551493,33.68625 66.922403,45.12967 6.59368,2.86127 12.17601,5.36811 12.40518,5.57076 1.32821,1.17449 -3.76183,-0.21524 -13.41667,-3.66314 z m 48.3982,-46.00632 c -23.00215,-3.20731 -54.4995,-14.94666 -75.8378,-28.26545 -16.31274,-10.18198 -34.87279,-26.25935 -43.939812,-38.06224 -5.945934,-7.74005 -12.090367,-19.64172 -12.106522,-23.45015 -0.02029,-4.78231 1.132174,-6.36203 8.774473,-12.0275 3.761916,-2.78882 9.198936,-7.56497 12.082271,-10.61367 2.88333,-3.0487 5.39446,-5.54309 5.58029,-5.54309 0.18584,0 2.66801,4.20615 5.51594,9.34701 14.58141,26.32114 39.39207,49.91303 66.92068,63.63334 11.40245,5.68301 29.45417,11.52221 41.97221,13.5768 14.82969,2.43399 32.88826,1.61317 43.07595,-1.95794 20.29991,-7.11575 35.17958,-24.21479 39.68068,-45.59921 2.00254,-9.51395 1.35329,-26.58942 -1.38782,-36.5 C 292.8563,118.38255 255.92288,82.705517 202.1782,60.920973 190.90141,56.350105 193.2551,56.111937 205.96907,60.537379 268.96562,82.465041 314.87566,126.04926 328.1199,176.5 c 3.408,12.98196 3.43108,34.61929 0.0485,45.5 -3.24314,10.43229 -8.25142,18.99043 -15.78967,26.98137 -11.36232,12.04467 -26.31,19.86925 -45.87876,24.01593 -11.42834,2.4217 -41.31802,3.53815 -52.6018,1.9648 z M 179.20447,205.37387 171,200.88243 v -9.45591 -9.45592 l 3.25,-1.98533 c 1.7875,-1.09193 5.51463,-3.17474 8.28252,-4.62846 l 5.03252,-2.64313 7.70686,4.39316 7.70686,4.39316 0.0106,9.70589 0.0106,9.70589 -7.25,4.18762 c -3.9875,2.3032 -7.49549,4.31774 -7.79553,4.47676 -0.30005,0.15903 -4.23755,-1.73201 -8.75,-4.20229 z"
       id="path4493"
       inkscape:connector-curvature="0" />
    <path
       style="fill:#005ba0"
       d="M 151.5,314.68547 C 108.03466,295.78962 74.777354,266.48939 56.651791,231.12264 41.360291,201.28573 39.960326,168.86285 52.988793,146.28842 56.99188,139.35227 67.066409,128.70851 74.238583,123.83798 91.939845,111.81728 117.71624,106.02507 147.5,107.37541 c 55.62181,2.52179 120.57431,40.22201 141.86323,82.34135 4.42947,8.76353 3.60835,11.96153 -4.59611,17.90045 -2.89691,2.09698 -8.30522,6.71537 -12.01845,10.26308 -3.71322,3.54772 -6.89772,6.26349 -7.07666,6.03505 -0.17894,-0.22844 -2.49758,-4.33274 -5.15253,-9.12067 -14.20969,-25.62571 -39.12334,-49.17669 -66.4072,-62.77502 -11.20643,-5.58531 -29.37548,-11.5391 -41.44134,-13.57984 -7.13669,-1.20706 -13.57379,-1.53966 -23.5,-1.21424 -12.17392,0.39912 -14.56298,0.78278 -21.81719,3.5036 -15.662626,5.87455 -26.246543,15.30217 -33.422209,29.77083 -10.957144,22.09344 -8.899771,51.29916 5.406019,76.74186 15.143502,26.93257 38.42131,47.91706 73.16244,65.95452 7.15,3.71225 12.55,6.73973 12,6.72772 -0.55,-0.012 -6.4,-2.36939 -13,-5.23863 z m 58,-41.11028 c -41.63589,-8.03971 -79.05322,-27.65362 -105.68348,-55.39856 -9.961896,-10.37888 -19.064845,-23.68509 -20.926165,-30.58877 -1.384643,-5.13567 -0.12556,-7.42438 7.035302,-12.78846 3.065889,-2.29661 8.582431,-7.06142 12.258983,-10.58849 l 6.68464,-6.41283 3.17168,6.28305 c 12.02674,23.82486 34.67116,47.24144 59.81674,61.85647 22.82874,13.26845 53.36951,21.2109 75.65862,19.67584 17.39647,-1.1981 30.58326,-6.78601 41.56561,-17.61344 12.5608,-12.38362 18.30388,-27.15308 18.27586,-47 -0.0613,-43.40907 -32.24982,-85.047254 -86.98175,-112.517128 -7.08182,-3.554356 -12.59509,-6.467057 -12.25172,-6.472669 1.35613,-0.02216 18.11061,7.084187 26.01085,11.032407 24.06417,12.026292 45.84285,28.24347 60.71627,45.21149 23.56979,26.88907 35.53023,54.51025 35.39737,81.7459 -0.10496,21.51382 -5.85856,35.73198 -20.29962,50.16392 -7.49344,7.48871 -10.07872,9.3442 -19.05929,13.67909 -5.76024,2.78045 -15.06862,6.22319 -20.8899,7.72621 -9.53236,2.4612 -12.48135,2.74083 -32,3.03434 -15.15497,0.22789 -23.56582,-0.0756 -28.5,-1.02837 z m -30.23877,-68.87736 -7.23877,-4.19783 -0.0112,-9.13603 -0.0112,-9.13604 6.92483,-4.11396 C 182.73355,175.85128 186.42229,174 187.1221,174 c 0.6998,0 4.57433,1.88924 8.61007,4.19831 l 7.33769,4.19831 -0.2849,9.02365 -0.2849,9.02365 -7.5,4.26809 c -4.125,2.34745 -7.725,4.2491 -8,4.22588 -0.275,-0.0232 -3.75745,-1.93125 -7.73877,-4.24006 z"
       id="path4491"
       inkscape:connector-curvature="0" />
    <path
       style="fill:#015a9e"
       d="M 151.5,314.68547 C 133.09152,306.68269 110,293.07912 110,290.23719 c 0,-0.74537 -0.46692,-1.06665 -1.0376,-0.71395 -1.17612,0.72688 -11.106685,-7.07957 -21.372843,-16.80126 -6.314665,-5.97977 -6.773447,-6.68095 -5.321428,-8.13297 C 84.053791,262.80335 87,262.45615 87,264.03138 c 0,0.56727 -0.675,1.29041 -1.5,1.60699 -2.055637,0.78883 -1.882699,1.92718 0.651444,4.28809 2.576116,2.40002 3.869602,1.9087 3.099839,-1.17746 -0.547148,-2.19363 -0.50841,-2.18746 1.573565,0.251 1.565526,1.83358 2.353241,2.1706 2.955021,1.26429 1.005495,-1.51432 8.882741,7.46848 8.398501,9.5772 -0.17788,0.77461 0.25847,1.17129 1.00344,0.9122 0.725,-0.25214 3.79319,1.6429 6.81819,4.2112 3.025,2.56829 7.16072,5.90984 9.19049,7.42566 2.54601,1.90136 3.50824,3.27601 3.10282,4.43275 -0.44624,1.27318 -0.29583,1.40825 0.62499,0.56122 0.91111,-0.83809 3.12351,0.15018 8.89718,3.97433 4.22648,2.7994 13.53452,8.1267 20.68452,11.83845 7.15,3.71174 12.55,6.73881 12,6.7268 -0.55,-0.012 -6.4,-2.36939 -13,-5.23863 z M 140.5,308 c -0.33992,-0.55 -1.15398,-0.99311 -1.80902,-0.98469 -0.71561,0.009 -0.59227,0.40223 0.30902,0.98469 1.92112,1.24153 2.2673,1.24153 1.5,0 z M 118.96858,295.25 C 118.92775,294.27559 114,290.67996 114,291.62457 c 0,1.04431 3.16329,4.37543 4.15499,4.37543 0.46475,0 0.83087,-0.3375 0.81359,-0.75 z m -10.04247,-9.83903 C 108.28206,284.63494 107.36021,284 106.87756,284 c -1.35312,0 -1.0381,2.77575 0.37244,3.28172 2.00271,0.71839 2.94867,-0.33741 1.67611,-1.87075 z M 101,278.65499 c 0,-0.18976 -0.96374,-1.20226 -2.141654,-2.25 -2.134048,-1.89822 -2.136745,-1.897 -0.759453,0.34501 C 99.273543,278.66214 101,279.7958 101,278.65499 Z M 94.5,275 c -0.339919,-0.55 0.110081,-1 1,-1 0.889919,0 1.339919,-0.45 1,-1 -0.756108,-1.22341 -2.536963,-1.26266 -4.378115,-0.0965 -1.635198,1.03573 -0.639482,3.0965 1.496149,3.0965 0.825,0 1.221885,-0.45 0.881966,-1 z m 121.0445,-0.928 c -0.97227,-1.57317 3.20745,-2.24329 5.42346,-0.86954 1.72351,1.06845 2.23974,1.06192 2.92378,-0.0369 0.68669,-1.10312 1.59161,-1.06805 5.21949,0.20226 l 4.38877,1.53675 -8.69098,0.0477 c -4.78004,0.0263 -8.94908,-0.36986 -9.26452,-0.88026 z M 242.5,273.95405 c 1.65,-0.57499 7.5,-1.19408 13,-1.37574 7.00393,-0.23134 9.10118,-0.0619 7,0.56567 -4.56413,1.36311 -23.82576,2.14327 -20,0.81007 z m -41.75,-2.19874 c -4.8125,-1.1415 -8.75,-2.4138 -8.75,-2.82733 0,-0.41353 1.0125,-0.59643 2.25,-0.40646 3.09815,0.47562 14.80781,3.55664 17.25,4.5388 l 2,0.80432 -2,-0.0169 c -1.1,-0.009 -5.9375,-0.95089 -10.75,-2.0924 z m 67.0625,-0.43842 c 0.72187,-0.28887 1.58438,-0.25335 1.91667,0.0789 0.33229,0.33229 -0.25834,0.56864 -1.3125,0.52522 -1.16495,-0.048 -1.4019,-0.28494 -0.60417,-0.60416 z M 271.78669,268 c 0.45514,-3.10103 1.01326,-3.34774 6.86232,-3.0334 1.73195,0.0931 3.44601,-0.31133 3.80902,-0.89868 1.06995,-1.73122 3.54197,-1.2209 3.54197,0.73119 0,2.37026 -6.8447,5.0702 -8.02248,3.16452 C 276.97681,266.34445 274,267.47079 274,269.46862 274,270.31088 273.40294,271 272.67319,271 c -0.90541,0 -1.18696,-0.95281 -0.8865,-3 z M 182,266.41121 c -4.19473,-1.56989 -5.30303,-2.25151 -3.125,-1.92193 1.85625,0.2809 4.87792,0.51072 6.71482,0.51072 2.31636,0 3.66782,0.61288 4.41018,2 1.39512,2.60681 0.32896,2.52834 -8,-0.58879 z M 88.176826,262.86538 C 85.879572,260.04134 84,257.25134 84,256.66538 c 0,-1.31743 0.574613,-0.67135 5.411578,6.08462 4.792924,6.69446 4.164828,6.75315 -1.234752,0.11538 z M 290,263.13652 c 1.925,-1.68038 4.5875,-3.07353 5.91667,-3.09588 3.00853,-0.0506 2.83753,0.0994 -3.91667,3.43494 l -5.5,2.71618 z M 75.294081,259.22315 C 70.209339,252.98068 68.10308,249.80912 71.327259,253.25 72.744504,254.7625 74.375653,256 74.952034,256 75.528415,256 76,256.675 76,257.5 c 0,0.825 0.45,1.5 1,1.5 0.55,0 1,-0.675 1,-1.5 0,-2.2233 2.759582,-1.81774 4.05103,0.59535 0.920265,1.71953 0.759885,2.43215 -0.89418,3.97315 -1.988609,1.85267 -2.067054,1.8146 -5.862769,-2.84535 z M 171,262.54428 c -15.12314,-5.68112 -38.24404,-18.74475 -37.34095,-21.09816 0.75436,-1.96584 2.88462,-1.24722 2.70206,0.91151 -0.0947,1.11941 0.65159,1.64237 2.34362,1.64237 1.67357,0 2.65981,0.67798 3.0266,2.08062 0.36671,1.40229 1.13019,1.92735 2.3418,1.61051 0.99386,-0.2599 2.0421,0.16678 2.34428,0.95423 0.46437,1.21015 0.91131,1.18536 2.97198,-0.16484 1.71675,-1.12486 2.62796,-1.26147 3.11863,-0.46755 0.40449,0.65448 -0.18169,1.35044 -1.4074,1.67097 -3.18853,0.83382 -2.53702,1.86874 2.03959,3.23992 3.35847,1.00622 4.29229,0.99437 4.94563,-0.0627 0.95358,-1.54292 1.95775,-0.76984 2.33452,1.79726 0.19553,1.33222 1.1232,1.84163 3.35373,1.84163 1.69589,0 3.90299,0.79238 4.90467,1.76085 1.00168,0.96847 2.94624,2.641 4.32124,3.71673 2.91184,2.27809 2.70884,2.33561 -2,0.5667 z m 127.67589,-4.94651 c -0.72468,-1.88848 0.0422,-2.48425 2.40309,-1.86687 1.53982,0.40268 1.71657,0.81052 0.81965,1.89124 -1.45929,1.75834 -2.54179,1.75015 -3.22274,-0.0244 z M 81.230053,253.75 c -0.55816,-0.6875 -1.184142,-2.15 -1.39107,-3.25 -0.254698,-1.35393 -1.168313,-2 -2.828231,-2 -1.80678,0 -2.722867,-0.76735 -3.481375,-2.91615 -0.75899,-2.15017 -0.715794,-3.02082 0.164446,-3.31461 0.656603,-0.21915 0.957367,-1.15688 0.668365,-2.08385 -0.421379,-1.35156 -0.212195,-1.30093 1.056103,0.25564 1.173366,1.44006 1.275556,2.13015 0.395937,2.67378 -0.901973,0.55745 -0.874847,1.10722 0.113381,2.29796 0.714453,0.86087 1.606803,1.37498 1.983,1.14248 0.376198,-0.23251 1.889131,1.57245 3.362075,4.01101 2.437574,4.03557 2.408553,6.20293 -0.04263,3.18374 z M 309.5037,250 c 4.38381,-4.90184 7.4963,-7.7121 7.4963,-6.76839 0,0.18205 -2.79339,3.01691 -6.20752,6.29969 L 304.58495,255.5 Z M 304,249.5 c 0,-0.825 0.43588,-1.5 0.96862,-1.5 0.53273,0 0.70959,0.675 0.39301,1.5 -0.31659,0.825 -0.75246,1.5 -0.96862,1.5 C 304.17686,251 304,250.325 304,249.5 Z M 63.192496,242.68737 c -2.97048,-4.70342 -3.853793,-7.00835 -3.465072,-9.04181 0.725302,-3.79418 2.784417,-2.69603 2.718154,1.44962 -0.02993,1.87265 0.532568,3.76468 1.25,4.20451 C 64.41301,239.73952 65,240.95046 65,241.99067 c 0,1.04021 0.395682,2.13584 0.879293,2.43473 0.840957,0.51974 2.274002,4.5746 1.616729,4.5746 -0.174206,0 -2.110793,-2.84068 -4.303526,-6.31263 z M 239,247.88454 c -1.375,-0.5854 -5.04411,-0.84552 -8.15357,-0.57803 -3.344,0.28767 -6.0904,0.0495 -6.72288,-0.58296 -0.75907,-0.75907 -1.81613,-0.72902 -3.64348,0.10358 -3.41959,1.55807 -5.98764,1.47887 -9.40855,-0.29014 -2.56602,-1.32695 -4.68045,-4.26139 -3.74478,-5.19707 0.20561,-0.2056 2.74162,0.17273 5.63559,0.84074 3.13416,0.72345 4.61284,1.44219 3.65692,1.77751 -3.44107,1.20706 30.37646,1.96319 39.38075,0.88051 3.025,-0.36373 4.825,-0.40875 4,-0.10006 -0.825,0.3087 -1.82282,1.05629 -2.21738,1.66132 -0.39456,0.60503 -2.86956,1.13179 -5.5,1.17056 -2.63044,0.0388 -6.13262,0.36478 -7.78262,0.72446 -1.65,0.35968 -4.125,0.17499 -5.5,-0.41042 z m 30.97994,-4.40871 c -1.50227,-1.81012 -1.65031,-1.6452 4.02006,-4.47848 2.475,-1.23667 6.58507,-3.76682 9.13349,-5.62256 l 4.63349,-3.37408 0.54332,2.74965 c 0.32223,1.63077 -0.081,3.71761 -0.99094,5.12845 -1.37987,2.13942 -2.056,2.32497 -6.71863,1.84374 -6.09216,-0.62876 -8.63589,0.42698 -7.8911,3.27509 0.61902,2.36713 -0.93594,2.63953 -2.72969,0.47819 z m 16.07279,-8.11452 c 1.34411,-3.53527 0.90747,-3.7017 -2.84002,-1.08255 -3.84814,2.6895 -4.03888,3.72124 -0.68796,3.72124 1.80832,0 2.80943,-0.74876 3.52798,-2.63869 z M 142.5,243 c 0.33992,-0.55 0.81648,-1 1.05902,-1 0.24254,0 0.44098,0.45 0.44098,1 0,0.55 -0.47656,1 -1.05902,1 -0.58246,0 -0.7809,-0.45 -0.44098,-1 z m 121,0 c 1.1,-0.47269 2.675,-0.88417 3.5,-0.9144 1.33333,-0.0489 1.33333,0.0527 0,0.9144 -0.825,0.53316 -2.4,0.94464 -3.5,0.9144 l -2,-0.055 2,-0.85943 z m 47.5,-0.94098 c 0,-0.51754 0.45,-1.2191 1,-1.55902 0.55,-0.33992 1,0.0835 1,0.94098 0,0.85746 -0.45,1.55902 -1,1.55902 -0.55,0 -1,-0.42344 -1,-0.94098 z m -186.9488,-5.76133 c -4.09685,-3.11583 -6.87718,-5.8557 -6.17852,-6.08858 0.69865,-0.23289 2.25062,0.48511 3.4488,1.59556 1.86253,1.72613 2.36555,1.8142 3.46795,0.60716 1.59592,-1.74742 3.52423,-1.85282 2.96057,-0.16183 -0.22917,0.6875 -1.01667,1.25 -1.75,1.25 -0.73333,0 -1.52083,0.5625 -1.75,1.25 -0.35561,1.06684 0.43186,1.49218 2.75,1.48537 0.275,-8e-4 1.54673,1.29591 2.82606,2.88158 1.27933,1.58568 2.17933,2.87469 2,2.86448 -0.17933,-0.0102 -3.67802,-2.5679 -7.77486,-5.68374 z m 194.31589,2.47098 c 0.69423,-2.05223 1.57064,-4.03973 1.94757,-4.41667 0.37694,-0.37693 0.68534,-2.37969 0.68534,-4.45057 0,-2.99301 0.5811,-4.17902 2.83333,-5.78275 1.55834,-1.10963 2.89478,-2.60278 2.96988,-3.3181 0.0751,-0.71532 0.57748,-3.69155 1.1164,-6.61384 0.69112,-3.74754 0.647,-6.04381 -0.1497,-7.79239 -0.96314,-2.11386 -0.80041,-2.8044 1.10444,-4.68674 l 2.234,-2.20761 -0.61439,5.5 c -1.56849,14.0412 -6.38579,28.49203 -11.83419,35.5 -1.43305,1.84325 -1.45599,1.70756 -0.29268,-1.73133 z M 324.5,228 c 0.33992,-0.55 0.14148,-1 -0.44098,-1 -0.58246,0 -1.05902,0.45 -1.05902,1 0,0.55 0.19844,1 0.44098,1 0.24254,0 0.7191,-0.45 1.05902,-1 z m -124.25,11.96884 c -1.2375,-0.49742 -2.25,-1.10762 -2.25,-1.35601 0,-0.48465 7.22172,1.33227 7.91667,1.99176 0.78142,0.74156 -3.41002,0.27131 -5.66667,-0.63575 z m -12.88398,-1.18562 c -0.34224,-0.55376 -0.057,-1.3562 0.63398,-1.78322 0.69093,-0.42702 0.9564,-1.26152 0.58995,-1.85446 -0.36646,-0.59294 1.35979,-0.32715 3.83611,0.59064 2.47632,0.91778 4.39315,1.77794 4.25963,1.91146 -1.02955,1.02956 -8.80003,1.97636 -9.31967,1.13558 z M 72.231024,234.74849 C 71.623097,233.51182 70.842094,231.4875 70.495463,230.25 70.148832,229.0125 69.445549,228 68.932612,228 c -1.051595,0 -1.276484,-3.32279 -0.291549,-4.30773 0.352585,-0.35258 1.68979,2.36021 2.971568,6.02843 2.353701,6.73588 2.652568,9.1658 0.618393,5.02779 z m 109.736326,-1.99644 -2.46735,-2.01836 2.5,0.75412 c 4.2832,1.29201 5.44594,2.12709 3.82681,2.74841 -0.76566,0.29381 -2.50242,-0.37407 -3.85946,-1.48417 z M 55.105759,228.28078 C 52.559461,223.03974 48,211.23334 48,209.88094 48,209.39642 48.370773,209 48.823941,209 c 0.453168,0 1.895131,3.4875 3.204363,7.75 1.309233,4.2625 3.244024,9.45693 4.299537,11.54319 1.055514,2.08625 1.723423,3.98888 1.484244,4.22806 -0.23918,0.23918 -1.457026,-1.66903 -2.706326,-4.24047 z m 113.766741,1.0656 c -0.75481,-0.9095 -1.23162,-2.4845 -1.05958,-3.5 C 168.03825,224.51631 167.51103,224 165.92753,224 c -1.209,0 -3.18091,-1.06037 -4.38201,-2.35638 -1.2011,-1.29602 -2.82771,-2.58441 -3.61467,-2.8631 -0.78697,-0.27869 -1.14032,-0.82134 -0.78523,-1.2059 1.02406,-1.10904 11.85438,6.66814 11.85438,8.51256 0,1.04758 1.10999,1.88482 3,2.26282 1.65,0.33 3,1.06125 3,1.625 0,1.6514 -4.6294,1.17647 -6.1275,-0.62862 z m -60.98692,-7.07871 c -6.15296,-6.28653 -7.4866,-8.19098 -6.99411,-9.98769 0.81659,-2.97904 2.83342,-1.60708 3.2683,2.22327 0.25605,2.2553 1.13427,3.34635 3.54956,4.40974 2.29058,1.00849 3.14941,2.01045 3,3.5 -0.14743,1.46991 0.38204,2.10935 1.79067,2.16256 4.47309,0.16897 8.5,1.64344 8.5,3.11231 0,1.11758 -0.65037,1.36572 -2.41724,0.92227 -1.32948,-0.33368 -2.56963,-0.14951 -2.75589,0.40926 -0.18626,0.55878 -3.75984,-2.4795 -7.94129,-6.75172 z m 186.24536,6.81326 c -0.74378,-0.45969 -2.31502,-0.58791 -3.49164,-0.28495 -1.89282,0.48738 -1.98222,0.35931 -0.77599,-1.11155 0.74982,-0.91433 1.78203,-1.40362 2.2938,-1.08733 0.51178,0.31629 1.53324,0.0748 2.26991,-0.53653 1.01817,-0.84501 1.4952,-0.70563 1.98898,0.58112 0.81812,2.13199 -0.50203,3.54121 -2.28506,2.43924 z m -123.62386,-3.06948 c -0.35034,-0.56686 0.0511,-0.7345 0.94098,-0.39301 1.73242,0.66479 2.04939,1.38156 0.61096,1.38156 -0.51754,0 -1.21592,-0.44485 -1.55194,-0.98855 z M 65,222.58333 c 0,-0.77916 0.5625,-1.60574 1.25,-1.83684 0.996969,-0.33513 0.99963,-1.1181 0.01315,-3.86797 -0.680269,-1.89629 -1.197997,-5.68221 -1.150506,-8.41316 0.04749,-2.73095 -0.408426,-6.23215 -1.013148,-7.78046 -1.608652,-4.11873 -1.424659,-7.02366 0.400506,-6.32327 1.12574,0.43198 1.5,-0.16509 1.5,-2.39301 C 66,190.33588 65.518702,189 64.930449,189 c -0.588253,0 -0.925753,-1.0125 -0.75,-2.25 C 64.356202,185.5125 65.175,184.5 66,184.5 c 0.825,0 1.846736,-0.675 2.270525,-1.5 0.446384,-0.86899 0.524009,-0.44831 0.184524,1 -1.258042,5.36705 -1.637827,25.72174 -0.584733,31.33894 0.895169,4.77483 0.837508,6.09609 -0.316398,7.25 C 65.763843,224.37901 65,224.37734 65,222.58333 Z m 198.68624,-2.11511 c -1.45977,-3.06117 -1.48788,-3.60711 -0.21091,-4.09713 0.8103,-0.31094 2.19198,0.15336 3.0704,1.03178 0.87842,0.87842 2.31843,1.59713 3.20001,1.59713 1.27165,0 1.11754,0.51662 -0.74574,2.5 -1.29175,1.375 -2.63684,2.5 -2.9891,2.5 -0.35226,0 -1.39836,-1.5893 -2.32466,-3.53178 z m 31.47399,0.87009 c 0.89652,-1.01107 3.24708,-4.76331 5.22346,-8.33831 1.97638,-3.575 3.59857,-5.73906 3.60486,-4.80902 0.006,0.93004 -0.4402,1.97012 -0.99222,2.31129 -0.55202,0.34116 -0.72824,1.71772 -0.39159,3.05902 0.45875,1.82783 0.20918,2.43871 -0.99633,2.43871 -0.88463,0 -1.61126,0.7875 -1.61473,1.75 -0.003,0.9625 -1.45919,2.57724 -3.23491,3.58831 -3.13392,1.7844 -3.18078,1.7844 -1.59854,0 z m -23.4837,-4.73888 c -0.63473,-1.65407 0.77355,-3.05733 2.18982,-2.18203 0.4765,0.29449 1.63081,-0.30928 2.56515,-1.3417 1.11387,-1.23082 1.33204,-2.10381 0.63364,-2.53544 C 276.47931,210.1782 276,210.14936 276,210.47617 c 0,0.32681 -0.9126,0.10579 -2.02801,-0.49116 -1.1154,-0.59695 -1.75034,-1.53463 -1.41097,-2.08374 0.39864,-0.64501 1.11194,-0.58765 2.01527,0.16205 0.79668,0.66118 2.15662,0.83322 3.16098,0.39987 0.9695,-0.41831 2.77523,-0.66145 4.01273,-0.54031 1.64455,0.16098 2.25,-0.30839 2.25,-1.74433 0,-1.97882 2.43394,-3.66589 4.75,-3.29243 0.6875,0.11085 1.25,-0.26817 1.25,-0.84228 C 290,201.46973 289.55,201 289,201 c -0.55,0 -1,-0.675 -1,-1.5 0,-0.825 0.7063,-1.5 1.56955,-1.5 1.0557,0 1.46493,-0.73662 1.25,-2.25 C 290.6438,194.5125 289.825,193.5 289,193.5 c -0.825,0 -1.455,-0.5625 -1.4,-1.25 0.36354,-4.5443 0.54477,-4.63869 2.4,-1.25 2.10595,3.84665 2.52056,8.15881 1.04886,10.90871 -0.52313,0.97747 -3.56063,3.71217 -6.75,6.07711 -3.18937,2.36494 -7.20158,5.61594 -8.91601,7.22444 -2.5294,2.37311 -3.22824,2.63504 -3.70632,1.38917 z M 150,216.10699 C 150,215.22108 152.34737,214 154.0504,214 c 0.48776,0 0.62781,0.675 0.31123,1.5 C 153.74977,217.09448 150,217.61632 150,216.10699 Z m -96.921053,-1.69032 c 0.04798,-1.16495 0.284941,-1.4019 0.604167,-0.60417 0.288871,0.72187 0.253344,1.58437 -0.07895,1.91667 -0.332292,0.33229 -0.568641,-0.25834 -0.52522,-1.3125 z m 91.844543,1.40665 c -0.67798,-2.86503 -0.48876,-3.96723 0.80542,-4.69148 0.91189,-0.51033 1.23624,-1.37921 0.78649,-2.10693 -0.57876,-0.93645 -0.94228,-0.95224 -1.49079,-0.0647 -0.52516,0.84972 -1.80184,0.57374 -4.625,-0.9998 -5.25086,-2.92665 -6.48424,-4.01443 -5.80251,-5.11749 0.31629,-0.51178 -0.0262,-1.67217 -0.76101,-2.57865 -0.95272,-1.17525 -0.97742,-1.43268 -0.0861,-0.89718 0.8059,0.48417 1.25,0.14203 1.25,-0.96303 0,-1.58001 0.1582,-1.57084 2.02363,0.11736 1.47004,1.33036 1.6928,2.03583 0.81431,2.57877 -0.93523,0.578 -0.91283,1.10467 0.0988,2.32362 1.7264,2.08019 3.44771,2.0205 2.63728,-0.0914 -0.35197,-0.91722 1.73739,0.50729 4.64301,3.16557 2.90563,2.65829 5.68528,5.18356 6.17701,5.61172 0.49173,0.42817 -0.10458,0.51733 -1.32513,0.19815 -1.76392,-0.46127 -2.15248,-0.20079 -1.89405,1.2697 0.19866,1.1304 -0.35559,1.9899 -1.42487,2.2096 -0.9625,0.19777 -1.78443,0.21408 -1.82651,0.0362 z m 115.25044,-1.50758 c -1.40599,-2.61604 -1.50082,-3.6358 -0.26719,-2.87338 0.49871,0.30822 0.67122,-0.34022 0.38337,-1.44098 C 259.99107,208.85784 260.2588,208 260.91475,208 c 1.69959,0 2.18153,2.11316 1.25437,5.5 -0.80549,2.94239 -0.8438,2.95806 -1.99519,0.81574 z M 92.640522,205.34393 c -4.626237,-6.37485 -10.419327,-17.17292 -8.278308,-15.4304 0.955234,0.77744 2.625761,3.36494 3.712282,5.75 1.08652,2.38506 2.382946,4.33647 2.880946,4.33647 0.498001,0 1.049254,1.01074 1.225007,2.2461 0.207138,1.45596 1.638739,2.86586 4.069551,4.00787 4.3278,2.03322 4.48773,2.31985 1.701063,3.04858 -1.576308,0.41221 -2.801291,-0.50092 -5.310541,-3.95862 z m 86.594108,-0.6461 -7.26538,-4.19783 0.26538,-9.27509 0.26537,-9.27508 4.23751,-2.52415 c 2.81778,-1.67845 4.05099,-2.0381 3.68082,-1.07345 -0.30617,0.79788 -1.42555,1.6779 -2.4875,1.95561 C 176.86887,180.58555 176,181.52989 176,182.40638 176,183.28287 175.58427,184 175.07615,184 c -0.50812,0 -1.07062,3.53584 -1.25,7.85742 l -0.32615,7.85742 2.66569,0.0733 c 3.82976,0.10531 8.87757,2.93555 8.23272,4.61599 -0.29302,0.7636 0.4976,2.11005 1.75692,2.99212 4.37172,3.06206 0.30467,1.4763 -6.9207,-2.69842 z M 255.59196,206.5 c -0.90094,-1.375 -1.24992,-2.5 -0.77553,-2.5 0.4744,0 1.37512,1.125 2.00162,2.5 0.62649,1.375 0.97547,2.5 0.77552,2.5 -0.19995,0 -1.10068,-1.125 -2.00161,-2.5 z M 45.449808,198.36372 c -3.127261,-17.36846 -0.793487,-35.828 6.302927,-49.8545 2.318283,-4.58223 2.59287,-4.80725 3.354311,-2.74889 0.950499,2.56945 0.214058,5.22301 -1.464035,5.27525 -1.772699,0.0552 -6.445417,10.99417 -7.233276,16.93334 -0.497533,3.75058 -0.38413,5.13329 0.382167,4.65969 1.259059,-0.77814 0.470462,6.17877 -0.899634,7.93647 -0.456616,0.58579 -0.39845,3.51079 0.129257,6.5 C 47.0369,192.81669 48.137062,208 47.538441,208 c -0.194469,0 -1.134354,-4.33633 -2.088633,-9.63628 z M 189,207.59907 c 0,-0.30124 1.36526,-1.25371 3.03391,-2.11661 1.87802,-0.97116 2.92575,-2.21916 2.75,-3.27568 -0.22545,-1.35535 0.38128,-1.65506 2.94674,-1.4556 2.6955,0.20958 3.33267,-0.15528 3.8465,-2.20255 0.44709,-1.78136 0.0242,-13.19345 -0.52405,-14.14034 -0.0292,-0.0504 -1.85048,-0.63022 -4.04728,-1.2884 -2.68702,-0.80505 -4.47487,-2.12625 -5.46301,-4.03711 -1.68158,-3.25181 -3.90197,-4.38542 -6.93369,-3.53995 -1.68206,0.46909 -1.8054,0.37554 -0.60912,-0.46201 2.44471,-1.71161 4.02188,-1.29397 11.69721,3.09752 L 203,182.35668 v 8.69921 c 0,5.77866 -0.41966,9.02281 -1.25,9.66306 -2.36412,1.82291 -12.75,7.42731 -12.75,6.88012 z m 115.01187,-2.29005 c 0.007,-0.44496 0.67221,-3.28402 1.4793,-6.30902 0.80709,-3.025 1.78916,-9.55 2.18237,-14.5 0.71415,-8.99016 0.71587,-8.99461 1.57381,-4.0714 0.47238,2.71072 1.62248,5.50891 2.55576,6.21819 1.25066,0.95048 1.33421,1.29797 0.31772,1.32141 -1.09281,0.0252 -1.23822,1.27754 -0.70034,6.0318 0.57068,5.04415 0.43195,6 -0.87083,6 -1.11053,0 -1.57122,-1.06266 -1.62574,-3.75 L 308.84784,192.5 307.5,196 c -0.74131,1.925 -1.38208,4.71094 -1.42392,6.19098 -0.0418,1.48004 -0.52608,2.9691 -1.07608,3.30902 -0.55,0.33992 -0.99466,0.25398 -0.98813,-0.19098 z m -55.78152,-9.19187 C 245.42342,192.43656 238.5983,185.03087 233.06342,179.66006 227.52854,174.28925 223,169.69358 223,169.44747 223,169.20136 223.675,169 224.5,169 c 0.825,0 1.5,0.45 1.5,1 0,0.55 0.55182,0.8875 1.22626,0.75 0.67444,-0.1375 1.37646,0.72982 1.56003,1.92738 0.18358,1.19756 1.04667,2.76903 1.91799,3.49216 1.39608,1.15864 1.49192,1.01882 0.80706,-1.17738 L 230.7342,172.5 l 2.23789,2 c 1.23084,1.1 2.52814,1.8875 2.8829,1.75 0.35475,-0.1375 0.79501,0.2 0.97834,0.75 0.18334,0.55 -0.57011,1 -1.67433,1 -1.96533,0 -1.96181,0.0522 0.16667,2.47512 1.84425,2.09938 2.34115,2.25355 3.27321,1.01555 1.33804,-1.77725 2.40112,-0.9024 2.40112,1.976 0,3.31471 2.01881,4.82628 4.0232,3.01234 1.51011,-1.36664 1.64311,-1.13443 1.56365,2.72982 -0.0752,3.65716 0.28191,4.40299 2.66315,5.56191 1.5125,0.73612 2.75,1.98884 2.75,2.78383 0,0.79498 0.3375,1.39214 0.75,1.32701 2.02231,-0.31931 3.25,0.25163 3.25,1.51143 0,3.63009 -2.99899,1.97966 -7.76965,-4.27586 z m -119.10279,0.53858 c -1.04023,-1.25494 -1.09599,-1.98885 -0.23036,-3.03186 0.89167,-1.0744 0.57993,-1.89663 -1.42178,-3.75 -2.46257,-2.28008 -5.97065,-7.78499 -5.29916,-8.31549 0.17806,-0.14067 2.90041,3.03287 6.04967,7.05231 3.14926,4.01944 5.10112,7.06831 4.33747,6.77526 -0.80312,-0.30818 -1.53074,0.19618 -1.72594,1.19635 -0.31311,1.60436 -0.4365,1.60966 -1.7099,0.0734 z m 199.93535,-0.0799 c -0.69644,-0.83916 -0.93702,-2.79038 -0.58566,-4.75 0.32797,-1.82919 -0.0325,-5.70052 -0.80103,-8.60296 -0.76853,-2.90244 -1.06021,-5.48552 -0.64816,-5.74018 0.69675,-0.43062 2.10204,6.22968 3.43233,16.26734 0.60996,4.60246 0.41096,5.00484 -1.39748,2.8258 z M 86.027856,188.06725 C 85.25758,186.20764 84.298398,185.332 83.406536,185.67424 82.476229,186.03123 82,185.51121 82,184.13837 c 0,-1.50004 0.44795,-1.90371 1.615399,-1.45571 1.26032,0.48363 1.474942,0.17734 0.976401,-1.39342 -0.510523,-1.60852 0.512205,-2.89555 5.086713,-6.40128 6.452515,-4.94495 10.25543,-7.23952 6.071487,-3.66335 -3.14351,2.68687 -3.550986,3.97028 -1,3.14967 1.477138,-0.47517 1.516118,-0.3947 0.25,0.51607 -0.825,0.59347 -2.4574,1.08592 -3.627555,1.09434 -2.740353,0.0197 -4.030521,1.64319 -4.868053,6.12567 -0.523336,2.8009 -0.319195,3.74673 0.910514,4.21861 1.644248,0.63096 2.255241,4.67103 0.706414,4.67103 -0.483273,0 -1.425332,-1.31974 -2.093464,-2.93275 z M 284.25,184.33772 C 283.5625,184.06031 283,183.19583 283,182.41667 283,181.6375 282.28287,181 281.40638,181 c -0.87649,0 -1.81809,-0.8584 -2.09245,-1.90755 -0.27436,-1.04915 -1.35723,-2.13202 -2.40638,-2.40638 -2.47063,-0.64608 -2.45059,-2.3108 0.0356,-2.96096 2.16354,-0.56578 3.52616,0.72045 7.44208,7.02489 2.55093,4.10687 2.52996,4.66316 -0.13526,3.58772 z M 64.606989,181.41821 C 63.646758,178.91589 63.886035,178 65.5,178 c 0.933333,0 1.5,0.94444 1.5,2.5 0,2.79295 -1.45881,3.3527 -2.393011,0.91821 z M 119,178.5 c -0.68469,-0.825 -2.08979,-1.5 -3.12244,-1.5 -1.03266,0 -1.91412,-0.3375 -1.9588,-0.75 -0.0447,-0.4125 -0.16905,-1.919 -0.27636,-3.34779 -0.10731,-1.42878 -0.95164,-3.3543 -1.87627,-4.27894 -0.92463,-0.92463 -1.42713,-2.34313 -1.11665,-3.15221 0.40093,-1.0448 -0.19092,-1.51452 -2.04249,-1.62106 -1.43385,-0.0825 -3.1689,-0.195 -3.85567,-0.25 -0.68678,-0.055 -1.24928,0.74942 -1.25,1.7876 -0.001,2.10017 -2.98441,4.46264 -4.155737,3.29132 -0.41269,-0.41269 1.551077,-3.05177 4.363927,-5.86462 l 5.11428,-5.11428 3.57352,6.89999 c 1.96544,3.79499 4.75078,8.81249 6.18965,11.14999 2.59397,4.21401 2.8074,5.63503 0.41304,2.75 z m -48.921053,-2.12756 c -0.04342,-1.17015 0.669727,-2.74515 1.584773,-3.5 1.487249,-1.22686 1.554617,-1.1603 0.635127,0.62756 -0.565725,1.1 -1.278873,2.675 -1.584772,3.5 -0.381908,1.02999 -0.580917,0.83336 -0.635128,-0.62756 z m 236.573373,-7.10052 c -0.35045,-3.17456 -0.91949,-6.78986 -1.26454,-8.03401 -0.56446,-2.03528 -0.38976,-2.17436 1.74243,-1.38714 2.38394,0.88017 3.92904,4.14923 1.96111,4.14923 -0.61572,0 -1.00807,2.09743 -0.94188,5.03523 0.15824,7.02367 -0.73235,7.16447 -1.49712,0.23669 z M 320.5,173 c -0.34913,-1.1 -0.34227,-2.92159 0.0152,-4.04799 0.36049,-1.13579 0.0851,-2.72867 -0.61831,-3.57621 -0.94555,-1.13932 -0.97431,-1.70994 -0.113,-2.24225 1.25051,-0.77286 0.80279,-2.72658 -2.26436,-9.88095 -1.37701,-3.21199 -2.12813,-3.99242 -3.0812,-3.20144 -1.54675,1.28369 -2.89204,-0.4265 -2.05381,-2.6109 0.73737,-1.92148 -1.3519,-6.44026 -2.97765,-6.44026 -0.69965,0 -1.55764,-0.89966 -1.90663,-1.99925 -0.51818,-1.63265 -0.99283,-1.80749 -2.58852,-0.95351 -1.72552,0.92347 -1.90322,1.87195 -1.51986,8.11224 0.23876,3.88657 0.92327,7.55565 1.52113,8.15351 1.30984,1.30984 1.43769,3.68701 0.1983,3.68701 -0.48879,0 -1.16999,-1.4625 -1.51379,-3.25 -0.92684,-4.81899 -9.61846,-22.27594 -14.93666,-30 -3.23307,-4.69565 -4.18233,-6.75 -3.119,-6.75 1.29435,0 1.33418,-0.3447 0.25993,-2.25 -0.69773,-1.2375 -1.27606,-3.375 -1.28518,-4.75 -0.0136,-2.05377 -0.45179,-2.45153 -2.45482,-2.22844 -3.16803,0.35285 -3.42561,0.68874 -2.21832,2.89279 C 280.39647,112.67396 276.23807,109 270.60256,103.5 264.96704,98 256.9091,91.046573 252.69601,88.04794 c -4.36775,-3.10871 -7.19217,-5.741296 -6.57132,-6.125 0.75195,-0.464735 0.68732,-0.921092 -0.20891,-1.474991 -0.74468,-0.460236 -1.45433,-0.332311 -1.66515,0.30017 -0.51314,1.53941 -8.98002,-3.790669 -9.59534,-6.040459 -0.38868,-1.421163 1.09767,-0.939387 7.17726,2.326394 C 250.10381,81.477139 252.20842,83 250.07756,83 c -1.06213,0 -1.0774,0.295272 -0.0776,1.5 1.65922,1.999232 3.3735,1.915721 2.58996,-0.126169 -0.55983,-1.458882 -0.39081,-1.477168 1.64301,-0.177752 1.24687,0.796629 2.87757,1.809655 3.62379,2.251169 1.14235,0.675891 1.14235,0.948102 0,1.722502 -0.99422,0.673983 -0.77782,0.84099 0.80986,0.625 1.34132,-0.182475 4.66756,1.540007 8.73221,4.521949 7.86498,5.769973 8.07848,6.06313 5.95926,8.182351 -1.54705,1.54705 -1.44756,1.87302 1.45876,4.77934 3.56331,3.5633 5.28909,3.05843 2.7567,-0.80648 -0.93355,-1.42477 -1.557,-3.303 -1.38545,-4.17383 0.20906,-1.06129 4.0326,2.12448 11.5966,9.66228 9.12952,9.0979 11.16054,11.63681 10.6346,13.2939 -0.49987,1.57495 -0.29374,1.91153 0.892,1.45652 1.00461,-0.3855 2.45677,0.60743 4.16629,2.84873 1.44331,1.89227 2.19944,3.44049 1.68029,3.44049 -0.51915,0 -1.20292,-0.675 -1.51951,-1.5 -0.31658,-0.825 -1.41998,-1.5 -2.452,-1.5 -1.03202,0 -2.68945,-0.89841 -3.68317,-1.99647 -1.24948,-1.38065 -2.17391,-1.69178 -2.997,-1.00867 -0.65462,0.54328 -1.48631,0.69169 -1.84821,0.3298 C 292.2961,125.96276 292,126.41667 292,127.33333 292,128.25 292.4151,129 292.92245,129 c 0.50734,0 1.45242,1.60585 2.10017,3.56855 0.84291,2.55403 1.61181,3.40197 2.70461,2.98263 0.84558,-0.32448 2.07991,0.17039 2.76629,1.10907 1.15087,1.57391 1.43597,1.54037 3.99113,-0.46952 l 2.75172,-2.1645 3.01449,4.16138 C 315.47226,145.39554 327,170.43122 327,174.563 c 0,1.76937 -1.83886,-1.00728 -2.34584,-3.54219 C 323.92496,167.37479 322,166.99706 322,170.5 c 0,1.375 0.45,2.5 1,2.5 0.55,0 1,0.45 1,1 0,1.84149 -2.85725,1.02513 -3.5,-1 z M 302,141.58179 C 302,139.98497 300.55525,138 299.39301,138 c -1.71081,0 -1.79349,1.19952 -0.19301,2.8 1.16781,1.16781 2.8,1.62353 2.8,0.78179 z M 294,123.5 c 0,-0.825 -0.71075,-1.5 -1.57946,-1.5 -1.21502,0 -1.43549,-0.65544 -0.95554,-2.84066 0.73423,-3.3429 -1.7393,-6.28504 -3.665,-4.35934 -0.82032,0.82032 -0.75459,1.54979 0.24855,2.7585 0.75008,0.9038 1.45948,2.29524 1.57643,3.09209 C 290.11253,123.97251 294,126.50437 294,123.5 Z M 271.41655,99.356872 c 0.34679,-0.903721 0.50743,-1.714917 0.35699,-1.80266 -0.15045,-0.08774 -1.55008,-0.959291 -3.1103,-1.936775 -3.73913,-2.342575 -4.39282,-1.450779 -1.70424,2.324988 2.45822,3.452245 3.54343,3.796595 4.45755,1.414447 z M 262,92.059017 c 0,-0.517541 -0.45,-1.219098 -1,-1.559017 -0.55,-0.339919 -1,0.08352 -1,0.940983 C 260,92.298442 260.45,93 261,93 c 0.55,0 1,-0.423442 1,-0.940983 z m 10.49775,78.937343 c -0.27733,-0.44873 -0.2471,-1.48597 0.0672,-2.30497 0.31428,-0.819 0.0907,-1.78616 -0.49676,-2.14926 -0.59887,-0.37012 -1.06817,0.0929 -1.06817,1.05384 0,1.59764 -0.13322,1.59344 -1.96235,-0.0619 -1.0793,-0.97675 -2.4642,-3.29649 -3.07756,-5.15499 C 265.34673,160.52059 264.20479,159 263.42245,159 262.6401,159 262,158.325 262,157.5 c 0,-0.825 0.12376,-1.5 0.27503,-1.5 0.15126,0 3.56524,3.31232 7.58662,7.36072 6.43892,6.48218 7.06266,7.42581 5.22597,7.90612 -1.1471,0.29997 -2.31254,0.17825 -2.58987,-0.27048 z M 73.009384,168.80902 C 73.004223,167.32898 72.55,165.83992 72,165.5 c -2.17064,-1.34153 -0.918339,-2.73367 1.944096,-2.16118 2.318639,0.46373 3.071567,0.18719 3.54412,-1.30169 0.330014,-1.03978 3.392671,-4.7148 6.805905,-8.1667 3.413233,-3.45191 6.667143,-7.19739 7.230911,-8.32331 0.563767,-1.12592 2.138767,-2.20291 3.5,-2.39333 1.361232,-0.19041 2.834829,-0.97791 3.274658,-1.75 0.516481,-0.90664 2.4643,-1.38448 5.5,-1.34926 l 4.70031,0.0545 -4.8218,1.95697 c -10.982188,4.45724 -21.709458,13.89241 -27.780069,24.434 -2.559202,4.44404 -2.880406,4.70079 -2.888747,2.30902 z m 143.111476,-3.5002 c -1.85853,-1.46075 -6.99285,-4.82781 -11.40961,-7.48236 -5.93672,-3.56808 -7.40223,-4.83002 -5.62086,-4.84011 1.32528,-0.008 3.42211,-0.285 4.65961,-0.61664 1.62186,-0.43464 2.25,-0.17213 2.25,0.94033 0,0.84882 -0.7875,1.71385 -1.75,1.92228 -1.18989,0.25767 -0.0577,1.2528 3.53749,3.10916 2.90812,1.50162 5.69157,2.48048 6.18544,2.17525 1.25172,-0.7736 6.20274,4.3761 5.83121,6.06523 -0.22214,1.00997 -1.21516,0.66673 -3.68328,-1.27314 z m 94.32529,0.60405 c -0.36954,-0.59793 -0.17109,-1.58793 0.44098,-2.2 C 311.70429,162.89571 312,163.18458 312,164.8 c 0,2.41451 -0.51946,2.78655 -1.55385,1.11287 z M 254.44911,152.75 c -1.04382,-3.42527 -3.58029,-5.84314 -5.49293,-5.23609 -1.14718,0.3641 -1.88244,-0.12393 -2.2386,-1.48587 C 246.42589,144.91262 245.47011,144 244.59362,144 243.71713,144 243,143.33357 243,142.51905 c 0,-0.81452 -1.2375,-1.78296 -2.75,-2.15209 -1.5125,-0.36913 -4.02203,-1.72771 -5.57673,-3.01905 C 233.11858,136.05656 230.70793,135 229.31629,135 c -1.83828,0 -2.37285,-0.41022 -1.95466,-1.5 0.35512,-0.92543 -0.003,-1.5 -0.93522,-1.5 -0.83095,0 -2.05433,-0.46535 -2.71862,-1.03411 -0.66428,-0.56875 -2.10779,-1.73137 -3.20779,-2.58359 -3.99073,-3.09178 13.84988,6.74986 21.32494,11.76375 11.29271,7.57458 16.14314,11.77356 15.50903,13.42603 -0.80845,2.10677 -2.10491,1.73732 -2.88486,-0.82208 z m -63.78649,-2.36013 C 183.35978,146.59001 163.63759,140.31254 153.5,138.5612 c -4.95,-0.85514 -14.5875,-1.55625 -21.41667,-1.55801 -6.82916,-0.002 -12.13794,-0.28192 -11.79727,-0.62258 0.82803,-0.82804 27.99307,-0.74418 30.63573,0.0946 1.27963,0.40614 2.07821,0.21891 2.07821,-0.48725 0,-1.37673 6.1523,-0.28289 7.14049,1.26954 0.36733,0.57706 2.13046,0.72668 4.13398,0.35082 2.63895,-0.49507 3.63649,-0.28271 4.07812,0.86816 0.78751,2.05222 3.30213,1.92871 4.61017,-0.22645 0.89254,-1.47057 1.02023,-1.2955 0.79969,1.09643 -0.23482,2.54681 0.23754,3.04504 4.48755,4.73329 2.67172,1.06131 4.75,1.4396 4.75,0.86462 0,-0.56224 0.98485,-0.10472 2.18856,1.0167 2.12187,1.97682 5.06825,2.8094 4.56144,1.28896 -0.60717,-1.8215 1.85444,-1.42204 2.78904,0.45259 0.57147,1.14626 1.63907,2.8071 2.37245,3.69076 1.7007,2.04922 1.54934,2.01347 -4.24887,-1.00348 z M 58,139.16406 C 58,137.7008 71.306794,125.55234 76.5,122.27445 81.628066,119.03767 94.992152,113 97.02852,113 c 0.625981,0 0.948433,0.5625 0.716561,1.25 -0.231872,0.6875 -1.700149,1.26733 -3.262837,1.28851 -1.562688,0.0212 -3.045721,0.65192 -3.295628,1.40164 -0.329754,0.98927 0.175701,1.19836 1.842898,0.76238 2.052743,-0.5368 2.135914,-0.43939 0.781359,0.91517 -1.156882,1.15688 -2.320587,1.30713 -4.913395,0.63438 -2.679894,-0.69534 -4.194295,-0.4565 -7.170091,1.13079 -3.04347,1.62339 -3.470238,2.18153 -2.208113,2.88785 1.333946,0.74652 1.185579,1.1736 -1.006787,2.89812 -1.414209,1.11241 -3.236966,1.76713 -4.050572,1.45492 -2.274681,-0.87288 -6.594428,1.16697 -7.175315,3.38828 C 67.000676,132.10542 66.222663,133 65.557683,133 64.039451,133 60,137.22608 60,138.81445 60,139.4665 59.55,140 59,140 c -0.55,0 -1,-0.37617 -1,-0.83594 z M 78,124 c 0,-0.55 -0.45,-1 -1,-1 -0.55,0 -1,0.45 -1,1 0,0.55 0.45,1 1,1 0.55,0 1,-0.45 1,-1 z m 31.5,15 c 0.33992,-0.55 1.37898,-0.99311 2.30902,-0.98469 1.45727,0.0132 1.48367,0.14929 0.19098,0.98469 -1.95837,1.2656 -3.28218,1.2656 -2.5,0 z m -5.1409,-1.69244 c 1.13528,-1.13527 4.82334,-1.41176 4.14276,-0.31058 -0.34094,0.55166 -1.56834,1.00302 -2.72754,1.00302 -1.15921,0 -1.79606,-0.3116 -1.41522,-0.69244 z m 11.3909,0.0302 c 0.6875,-0.27741 1.8125,-0.27741 2.5,0 0.6875,0.27741 0.125,0.50439 -1.25,0.50439 -1.375,0 -1.9375,-0.22698 -1.25,-0.50439 z M 67,134.90638 C 67,134.40787 67.459647,134 68.021439,134 c 0.561791,0 1.534023,-1.125 2.160515,-2.5 1.579662,-3.46698 2.93979,-3.14768 1.703125,0.39982 C 70.956437,134.56372 67,136.99874 67,134.90638 Z m 135.57677,-10.58513 c 0.48699,-2.47435 0.14753,-2.98411 -2.76075,-4.14577 -1.82381,-0.72849 -4.38667,-1.75784 -5.69525,-2.28744 -1.30857,-0.52961 -2.16102,-1.18113 -1.89432,-1.44782 0.45601,-0.45602 14.88651,4.7732 21.11829,7.65269 2.5088,1.15923 2.62689,1.40019 1,2.04049 -3.36319,1.32365 -4.75085,1.06086 -3.34474,-0.6334 1.00364,-1.20931 0.97892,-1.50265 -0.12756,-1.51365 -0.75484,-0.008 -2.34181,-0.27372 -3.52659,-0.59157 -1.65179,-0.44314 -2.1182,-0.15739 -2,1.22534 0.0849,0.99268 -0.62765,1.96488 -1.5851,2.16282 -1.42099,0.29377 -1.63764,-0.15669 -1.18398,-2.46169 z M 185,119.21398 c 0,-1.48004 2.16588,-1.97643 5,-1.14593 2.27756,0.66741 2.30708,0.74146 0.33179,0.83227 -1.19252,0.0548 -2.88002,0.37282 -3.75,0.70667 C 185.7118,119.94083 185,119.76398 185,119.21398 Z M 185.5,115 c -0.73784,-1.19384 1.22178,-1.19384 4,0 1.78583,0.7674 1.71184,0.86696 -0.69098,0.92971 C 187.32898,115.96837 185.83992,115.55 185.5,115 Z m -8.5,-2.04931 c -1.375,-0.4601 -5.65,-1.45874 -9.5,-2.2192 -5.99433,-1.18402 -7.49583,-1.18001 -10.45127,0.0279 -3.05181,1.24731 -3.58531,1.22725 -4.60944,-0.17333 -0.95407,-1.30476 -2.68967,-1.4987 -9.8482,-1.10045 -5.56813,0.30977 -8.47142,0.12975 -8.08153,-0.50109 C 134.84422,108.44304 134.64148,108 134.05902,108 133.47656,108 133,108.3745 133,108.83222 c 0,1.48758 -6.95729,3.04042 -9.87415,2.20387 -1.55481,-0.44591 -3.53287,-0.38781 -4.45993,0.13099 -1.08863,0.60923 -1.66592,0.56855 -1.66592,-0.11739 0,-1.60937 -2.71059,-1.24627 -3.36163,0.45031 -0.31658,0.825 -1.60222,1.46837 -2.85699,1.42971 -2.17288,-0.0669 -2.18626,-0.11281 -0.28138,-0.96453 1.30612,-0.584 0.0918,-0.68608 -3.5,-0.29425 -3.025,0.33001 -5.275,0.35159 -5,0.048 0.93777,-1.03536 16,-3.48181 16,-2.59876 0,0.48392 0.47656,0.87986 1.05902,0.87986 0.58246,0 0.80594,-0.40948 0.49663,-0.90995 -0.90056,-1.45714 15.80655,-2.42282 29.45285,-1.7024 10.92841,0.57694 33.18598,4.4735 34.80583,6.09335 0.78847,0.78847 -3.98287,0.41715 -6.81433,-0.53031 z m 43,-44.538404 c -6.875,-3.51312 -12.24783,-6.39307 -11.93961,-6.399888 0.30821,-0.0068 3.23321,1.035959 6.5,2.317285 C 226.42549,68.98351 233,72.301809 233,73.636564 c 0,0.74989 -0.1125,1.318386 -0.25,1.263324 -0.1375,-0.05506 -5.875,-2.974483 -12.75,-6.487602 z"
       id="path4489"
       inkscape:connector-curvature="0" />
  </g>
</svg>
